<svg xmlns="http://www.w3.org/2000/svg" viewBox="0 0 356.79 125.34"><defs><style>.cls-1{fill:#cb9ac6;}</style></defs><g id="Layer_2" data-name="Layer 2"><g id="Layer_1-2" data-name="Layer 1"><path class="cls-1" d="M14.6,73.6c-4.56-14.75,7-21.45,6.14-24.34-.69-2.45-4-3.56-7.55-2.5C8.24,48.23-1.18,59.45,2.36,70.13c2.13,6.4,6.13,11.37,8.82,19.2,4.21,12.28,1.57,26.48-10.15,33.28-1,.52-1.16.91-.95,1.47.42,1.13,2.7,1.86,5.7.6C16.67,120.12,31,105.19,27.67,92.22,25.67,84.37,16.91,81.05,14.6,73.6Z"/><path class="cls-1" d="M81.74,18.17c-2.1.27-3.07,1.4-2.95,2.14.21,1.33,7,0,9.24,15.56,1.64,11.32-2.78,33.71-10.27,37.57-.51.26-1.4-.36-1.56-1.24-1-5.46,4.27-12,3.26-17.94-.58-3.41-5-7.83-9.93-6.91-2,.38-3.41,3.22-7.58,14.34-3.66,9.76-10.79,22.24-12.21,22.59a1.13,1.13,0,0,1-1.39-.9c-.61-9.11,7.66-21.66,6.16-32.07-.88-6.06-7.58-11.53-11-10.72-1,.24-1.31,1.13-1,2.7,3,14.58-12.9,27.62-8.57,42.93,1.87,6.61,11.19,9.52,15.24,7.78C57,90.62,61.73,74.83,65.9,65.93a31.63,31.63,0,0,0,.3,6.52c1.29,6.32,6.48,8.45,10.9,7.36,15.12-3.74,27.84-30.16,26.3-44.93C102.31,24.49,91.88,16.86,81.74,18.17Z"/><path class="cls-1" d="M271.86,22.78c2.49.48,5.63-.41,6.14-2.91s-2.07-5.47-5.14-6.06-6.47.62-6.89,3C265.46,19.6,268.31,22.09,271.86,22.78Z"/><path class="cls-1" d="M299.45,45.73c.63-2.47-1.64-5.07-5.26-5.95-5-1.21-18.71,3.77-21,14.79-.18.85-.32,1.69-.43,2.54-9.05,7-20.92,18.59-29.74,19.24-1,.07-2.75-1.37-2.23-3.68,2.78-12.38,17-22.14,20.19-34.22.67-2.54-1.38-6.35-5-7-3.32-.56-10.49-1.6-20.58-3.5,4.4-6.54,8-12.4,8.64-17.15C245.15,2.52,240.22.19,238.92,0c-1.1-.14-1.73.39-2.08,1.7-2.62,8.61-9.05,17.32-14.6,24.15-4.87-1.1-6.75-2-7.46-2.07-.88-.08-1.45.33-1.54,1.37-.1,1.2,1.58,4.35,4.52,6.59-4.29,5.8-9.18,12-13.55,18.39C195.38,59.58,183.55,71,171.8,71.64c-2,.11-3.86-1.52-3.85-6a23.77,23.77,0,0,1,2.19-10.34s3.4,1.78,5.29,1.71c10-.35,21-10,22.24-19.86.5-4.2-5.49-10.18-9.78-10.24-11.7-.19-23.69,8.27-29.5,19.23-8,10.58-19.68,25.25-32.4,27.17-1.93.3-4-1.16-4.4-5.64a23.79,23.79,0,0,1,1.23-10.5s3.55,1.46,5.42,1.22c9.9-1.27,20-11.88,20.31-21.84.11-4.23-6.41-9.62-10.69-9.29-16.32,1.26-31.68,19.43-29.9,36.1,1.14,10.7,12,17.12,21.2,15.57,9.51-1.6,18.39-10.78,25.65-19.75,0,.3,0,.6,0,.89.14,10.77,10.31,18.17,19.65,17.48,7-.52,14.12-5.13,20.57-10.8a44.54,44.54,0,0,0-3.15,12.44c-1.09,11.75,8.32,19.28,12,19.57,1.21.1,2-.58,2.09-1.18.1-1.2-2.24-2.74-1.68-9.92,1.53-19.45,15.4-37.65,26.36-52.83,0,0,12.89,1.1,16.35,1.62,1.9.29,2.63,1,2.36,1.88-3.21,9.72-18.62,16.12-21.07,28.4-1.28,6.43,7.58,15,14.18,15.46,10.55.8,21.33-9.56,29.82-17.56a68.62,68.62,0,0,1-1.11,11c-2.51,12.64-11.8,23.68-25.3,23.7-1.09,0-1.44.21-1.54.8-.2,1.19,1.38,3,4.57,3.38,11.66,1.51,31.39-4.3,35-17.12,2.21-7.79-3.67-15-1.92-22.65C285.42,48.65,298.7,48.64,299.45,45.73ZM190.55,34.2a.93.93,0,0,1,.81,1.09c-.53,4-14.65,15.26-19,15.21C180.89,37.39,188.64,34.12,190.55,34.2Zm-49.36.08c.52,0,.89.41.91,1-.15,4.06-13.17,16.54-17.52,16.9C131.86,38.35,139.29,34.37,141.19,34.28Z"/><path class="cls-1" d="M341.12,52.51c5.65-5.52,10.26-10.51,12-15.06,2.89-7.72-1.63-11.21-2.87-11.64-1.07-.36-1.8,0-2.41,1.25-4.29,8-12.42,15.27-19.29,20.85-4.59-2.06-6.23-3.47-6.92-3.68a1.3,1.3,0,0,0-1.79,1c-.34,1.15.69,4.57,3.16,7.36-12.36,10.93-28,23-32.7,38.75-3.41,11.34,4.38,20.61,7.95,21.65,1.19.34,2.15-.16,2.32-.73.34-1.15-1.8-3.37.33-10.06,5.64-17.8,20.66-31.23,34.21-44,7.36,2.44,15.05,5.09,16.38,5.58,2,.73,4.77-.62,5.25-1.88C357.44,60,353.6,56.91,341.12,52.51Z"/></g></g></svg>