<svg xmlns="http://www.w3.org/2000/svg" viewBox="0 0 232.4 235"><defs><style>.cls-1{fill:#cb9ac6;}</style></defs><g id="Layer_2" data-name="Layer 2"><g id="Layer_1-2" data-name="Layer 1"><path class="cls-1" d="M232.15,165.39A69.27,69.27,0,0,0,218.27,159a14.37,14.37,0,0,0,1-2.48c1.32-4.55-.48-8-1.19-8.18s-1.28.4-1.64,1.65a24.13,24.13,0,0,1-4.35,7.16c-11.14-3-22.8-4.2-34.57-6.73-2.34-.5-2.8,3.19-.48,3.68,12.12,2.6,20.37,5.29,29.22,9.63-10.19,10.8-24.58,23.89-27.64,34.38-2.1,7.22,1.81,12,4.93,12.94,6.05,1.77,18.72-9.52,24.65-14.94a3.7,3.7,0,0,0,1.24-1.57,1.87,1.87,0,0,0-1.05-2.05c-.27-.08-.52.14-1,.48-7.44,6-20,15.32-22.35,14.65-.71-.21-1.15-1-.81-2.17,2.88-9.88,19-26.34,28.46-38.35,2.63,1.46,5.4,3.08,8.4,4.9C223.15,173.24,234.19,166.63,232.15,165.39Z"/><path class="cls-1" d="M25.65,179.74c-2.48.21-8.07,5.14-7.54,11.53.32,3.84,1.79,7.06,2.19,11.84,1.09,13.13-6.89,16.19-9.59,16.85-.59.13-.74.32-.71.66.05.68,1.05,1.37,2.93,1.21,4.94-.41,16.15-7.09,15.49-15-.4-4.78-4.32-7.54-4.69-12C23,186.06,29.16,183.74,29,182,28.89,180.59,27.44,179.59,25.65,179.74Z"/><path class="cls-1" d="M58.16,171.92c-1,.11-1.48.68-1.43,1.1.08.77,3.3.25,4.27,9.18,1,9.44-4.2,20.76-6,21-.43,0-.72-.27-.77-.78-.35-3.15,2.54-6.65,2.17-10-.21-2-2.31-4.65-4.78-4.38-1,.11-1.71,1.65-4.32,7.7-2.26,5.32-6.72,11.83-7.48,11.91a.6.6,0,0,1-.67-.61c-.25-2.3,5.49-12,4.87-17.66-.4-3.74-3.17-7-4.87-6.87-.51.06-.72.51-.62,1.45.88,8.08-8.08,14.3-7.09,23.4.42,3.91,4.61,6,7.42,5.73,3.15-.34,8.34-11.15,10.27-14.71A20.29,20.29,0,0,0,49,202c.4,3.66,2.87,5,5.42,4.75,5.45-.6,15.26-14,14.09-24.77C67.76,174.75,61.73,171.53,58.16,171.92Z"/><path class="cls-1" d="M165,149.9a4.39,4.39,0,0,0,3.81,4.34c1.29.12,2.73-1.43,2.85-2.72.19-2.22-2.2-3.55-4-3.71A2.29,2.29,0,0,0,165,149.9Z"/><path class="cls-1" d="M181.83,175.81c.25-1.56-1-3-2.94-3.29-2.66-.43-9.84,3.29-10.95,10.16-.08.47-.14.93-.18,1.39-3.59,4.2-13.5,14.09-15.89,13.88-.74-.07-1.53-.61-1.39-2.18.79-6.82,9.56-14.33,10.46-22.36.15-1.75-1.18-3.55-1.92-3.61s-1,.75-1.74,1.8c-3,4.14-6.06,7.23-8.49,10a4.44,4.44,0,0,0-.58.61l-.5.67c-.5.61-1,1.22-1.39,1.82-5.78,7.52-13.92,17.35-16.09,17.28-.74,0-1.37-.7-1.33-1.9.36-11.57,14.9-35.39,20-49.17l1.26.12c2.48.24,9.74,2.12,11.8.22,2.34-2.14-1.87-3.29-3.2-3.33l-8.78-.32a15.74,15.74,0,0,0,.65-3.66c.15-4.73-2.45-7.59-3.19-7.62s-1.14.71-1.18,2c-.11,2.38-1.22,5.48-2.9,9a390.68,390.68,0,0,0-41.49.28,337.1,337.1,0,0,0-36.48,4.78c-11.54,2.11-22.86,5.91-34.71,4.39-6.9-.89-14.3-3.77-17.26-10.06-1.87-4-1.61-8.65-.72-13,1.27-6.07,3.94-12.15,8.42-16.53,4.19-4.1,11.3-9.13,17-10.51,11.18-2.7,22.91-1.46,34,1.07,18.2,4.15,35.25,12.07,53,17.78,20.09,6.48,47.1,11.07,67.61,5a17.81,17.81,0,0,0,9.76-7c6.58-9.78.24-20.81-6.89-28a80.84,80.84,0,0,0-57.83-23.78,143.15,143.15,0,0,0-30.84,3.8c-5,1.1-9.91,2.32-14.8,3.71-3.89,1.1-7.63,2.14-10.77-1.3a12,12,0,0,1-2.68-8.87C79.5,55.78,89.55,47.92,101,43.82a17.57,17.57,0,0,0-.16,2.9c.12,3.68,1.66,7.46,4.67,9.56,3.36,2.35,8,2.22,11.72.45,4.53-2.18,8-7.42,6.49-12.23-1.84-6-9.66-7.8-15.91-6.9-.37,0-.74.12-1.11.19,2.44-6.41,6.57-12,11-17.3,5.75-6.88,12.69-13.71,21.55-15.08,5.49-.84,11.35.5,16.38-2.18a1.84,1.84,0,0,0,.87-2.29A1.55,1.55,0,0,0,154.94,0l-.52,0c-21.9,1.32-42.48,15.84-51.07,36-.39.92-.76,1.85-1.08,2.79a66.58,66.58,0,0,0-17.33,8.54c-7.42,4.86-14.52,10.67-18.8,18.45-3.23,5.87-4.26,14.14.79,18.54,4.15,3.62,10.41,3,15.78,1.78,13.69-3,26.89-8.17,40.75-10.24,12-1.8,25-2.13,36.05,3,13.34,6.15,30.27,16.67,29.57,33.75A17,17,0,0,1,179,127.45c-5.42,2.36-13.14,1.85-23.56.88-11-1-21.78-2.24-32.2-6-12.2-4.4-23.82-10.3-36.2-14.21C64,100.83,37.6,96.86,17.17,112.93,7.53,120.51-.47,131.23,0,144.05c.38,9.85,6.81,18,16.63,19.91,6.66,1.27,12.85-.56,19.35-1.76,8.59-1.58,17.16-3.32,25.73-5,15.72-3.11,31.58-6.28,47.54-7.85,9.08-.9,18.21-.39,27.27.41,1.8.16,3.6.34,5.4.52-4.8,9.33-12.46,21.07-16.87,31.42-4.46,6.47-12.48,16.09-18.73,16.19-1.21,0-2.25-.9-2.29-3.68a16.06,16.06,0,0,1,1.1-6.42,8.53,8.53,0,0,0,3,1c4.91-.08,11.58-7,11.58-13,0-2.78-3.26-6-5.58-5.94-4.87.08-12.26,5.13-15.69,12.49-4.24,6.64-11.81,16.39-18,16.72-1.2.07-2.27-.8-2.42-3.58a16.08,16.08,0,0,1,.85-6.46,8.43,8.43,0,0,0,3,.85c4.91-.26,11.3-7.39,11.07-13.42-.15-2.78-3.48-5.85-5.79-5.73-6.58.36-17.4,10-16.77,21.64.4,7.32,6.06,10.54,11.8,10.23,4.38-.24,10.23-6.64,14.36-12.17,0,.13,0,.27,0,.4.12,7.33,5.65,10.77,11.4,10.68,4.17-.07,9.88-5.66,14.16-10.82a22.51,22.51,0,0,0-.48,3.76c-.23,7.52,4.76,11.2,8,11.3,4.14.13,9.62-5.88,14.14-11.93a9.06,9.06,0,0,0,8,7.8c4.43.39,11.93-7.56,15.86-12.49a40.94,40.94,0,0,1-.46,6.63C164.86,209.82,155.65,211,152.65,211c-.66,0-.87.14-.93.5-.12.74.75,1.72,2.77,2.05,5.31.86,18.85-3.25,20.23-11.77.83-5.13-2.57-9.06-1.8-13.82C174.44,178.47,181.53,177.64,181.83,175.81ZM105.06,43.63c.07-.39.16-.77.25-1.15,1.11-.31,2.22-.58,3.32-.82,3-.65,6.2-1.07,8.93.55a5.22,5.22,0,0,1,2.7,4.3c.07,3.87-4.62,5.47-7.22,6.18a7.33,7.33,0,0,1-4.91-.3C104.39,50.71,104.44,46.87,105.06,43.63Zm10.73,130.61c.28,0,.47.27.48.64-.15,2.51-7.55,9.86-10,9.9C110.82,176.54,114.77,174.25,115.79,174.24ZM89,175.05c.28,0,.48.25.5.62,0,2.51-7.16,10.15-9.57,10.28C84.12,177.54,88,175.1,89,175.05Z"/><path class="cls-1" d="M56.38,233.62c5.2-8.24,18.11-11.72,27.16-13.6,22.77-4.12,46.35-1.16,68.16,6a132.2,132.2,0,0,1,21,9c-10-1.81-19.76-3.87-29.57-5.4-19.46-3.09-39.13-5.07-58.78-3.67-8.85.86-20.9,1.92-27.95,7.69Z"/></g></g></svg>